<svg xmlns="http://www.w3.org/2000/svg" viewBox="0 0 180 180"><defs><style>.cls-1{fill:url(#新規グラデーションスウォッチ_2);}.cls-2{fill:#fff;}</style><linearGradient id="新規グラデーションスウォッチ_2" x1="5515.67" y1="10006.14" x2="5695.67" y2="10006.14" gradientTransform="translate(-9916.14 5695.67) rotate(-90)" gradientUnits="userSpaceOnUse"><stop offset="0" stop-color="#2dbef3"/><stop offset=".04" stop-color="#35a6eb"/><stop offset=".09" stop-color="#3d91e4"/><stop offset=".13" stop-color="#4184df"/><stop offset=".17" stop-color="#4380de"/><stop offset=".44" stop-color="#8a52da"/><stop offset=".71" stop-color="#c928d7"/><stop offset=".9" stop-color="#f00fd5"/><stop offset="1" stop-color="#ff05d4"/></linearGradient></defs><g id="ボタン"><circle class="cls-1" cx="90" cy="90" r="90"/><path class="cls-2" d="M112.04 67.57l-22.06-27.17-22.02 27.17 5.43 4.41 13.11-16.17v22.27h7v-22.24l13.11 16.14 5.43-4.41zM18.08 117v-22.36h7.65a10.44 10.44 0 0 1 4.13.74 5.62 5.62 0 0 1 2.68 2.34 8.24 8.24 0 0 1 .93 4.16 8.36 8.36 0 0 1-.93 4.19 5.69 5.69 0 0 1-2.67 2.39 10.15 10.15 0 0 1-4.11.77h-4.1v7.77zm3.58-10.84h3.64a5 5 0 0 0 3.45-1 4.13 4.13 0 0 0 1.15-3.23 4.24 4.24 0 0 0-1.11-3.24 5.07 5.07 0 0 0-3.52-1h-3.61zM43.63 98h1l-6.7 19h-3.56l8-22.4h3.49l8 22.4h-3.52zm5.24 13.27h-9.51v-3.12h9.51zM66.34 117.48a11.42 11.42 0 0 1-5.8-1.44 10.06 10.06 0 0 1-3.91-4.04 13 13 0 0 1-1.4-6.18 12.11 12.11 0 0 1 1.5-6.13 10.42 10.42 0 0 1 4.12-4 12.4 12.4 0 0 1 6-1.43 15.56 15.56 0 0 1 6.25 1.29l-.37 3.19a17.69 17.69 0 0 0-2.73-.95 13 13 0 0 0-3.12-.35 8.12 8.12 0 0 0-4.44 1.11 6.66 6.66 0 0 0-2.59 3 10.31 10.31 0 0 0-.84 4.23 10.52 10.52 0 0 0 .86 4.35 6.66 6.66 0 0 0 2.6 3 8.13 8.13 0 0 0 4.4 1.1 13.33 13.33 0 0 0 1.66-.12 9.71 9.71 0 0 0 1.81-.4v-4.89h-3.34v-3h6.83v10a13.6 13.6 0 0 1-3.2 1.2 17.45 17.45 0 0 1-4.29.46zM77.94 117v-22.36h14v3.26h-10.47v5.81h8.21v3.29h-8.21v6.8h10.72v3.2zM107.47 117v-19.1h-6.47v-3.26h16.38v3.26h-6.38v19.1zM130.14 117.48a11.17 11.17 0 0 1-5.69-1.44 10.26 10.26 0 0 1-3.92-4.05 14 14 0 0 1 0-12.31 10.26 10.26 0 0 1 3.92-4.05 12 12 0 0 1 11.39 0 10.26 10.26 0 0 1 3.92 4.05 14 14 0 0 1 0 12.31 10.26 10.26 0 0 1-3.92 4.05 11.18 11.18 0 0 1-5.7 1.44zm0-3.37a7.14 7.14 0 0 0 4.07-1.09 6.63 6.63 0 0 0 2.45-3 11.12 11.12 0 0 0 0-8.43 6.68 6.68 0 0 0-2.45-3 8.12 8.12 0 0 0-8.13 0 6.68 6.68 0 0 0-2.45 3 11.12 11.12 0 0 0 0 8.43 6.63 6.63 0 0 0 2.45 3 7.13 7.13 0 0 0 4.06 1.09zM144.91 117v-22.36h7.65a10.4 10.4 0 0 1 4.13.74 5.62 5.62 0 0 1 2.68 2.34 8.24 8.24 0 0 1 .94 4.16 8.36 8.36 0 0 1-.94 4.19 5.69 5.69 0 0 1-2.67 2.39 10.15 10.15 0 0 1-4.11.77h-4.09v7.77zm3.59-10.84h3.63a5 5 0 0 0 3.45-1 4.13 4.13 0 0 0 1.16-3.23 4.24 4.24 0 0 0-1.12-3.24 5.07 5.07 0 0 0-3.52-1h-3.6z"/></g></svg>